<?xml version="1.0" encoding="utf-8"?><svg viewBox="0 0 640 512" xmlns="http://www.w3.org/2000/svg" xmlns:xlink="http://www.w3.org/1999/xlink"><style>:root>svg{display:none}:root>svg:target{display:block}</style><svg viewBox="0 0 448 512" id="bars" xmlns="http://www.w3.org/2000/svg"><path d="M424 392H24c-13 0-24 11-24 24s11 24 24 24h400c13 0 24-11 24-24s-11-24-24-24zm0-320H24C11 72 0 83 0 96s11 24 24 24h400c13 0 24-11 24-24s-11-24-24-24zm0 160H24c-13 0-24 11-24 24s11 24 24 24h400c13 0 24-11 24-24s-11-24-24-24z"/></svg><svg viewBox="0 0 576 512" id="behance" xmlns="http://www.w3.org/2000/svg"><path d="M232 237.2c31.8-15.2 48.4-38.2 48.4-74 0-70.6-52.6-87.8-113.3-87.8H0v354.4h171.8c64.4 0 124.9-30.9 124.9-102.9 0-44.5-21.1-77.4-64.7-89.7zM77.9 135.9H151c28.1 0 53.4 7.9 53.4 40.5 0 30.1-19.7 42.2-47.5 42.2h-79v-82.7zm83.3 233.7H77.9V272h84.9c34.3 0 56 14.3 56 50.6 0 35.8-25.9 47-57.6 47zm358.5-240.7H376V94h143.7v34.9zM576 305.2c0-75.9-44.4-139.2-124.9-139.2-78.2 0-131.3 58.8-131.3 135.8 0 79.9 50.3 134.7 131.3 134.7 61.3 0 101-27.6 120.1-86.3H509c-6.7 21.9-34.3 33.5-55.7 33.5-41.3 0-63-24.2-63-65.3h185.1c.3-4.2.6-8.7.6-13.2zM390.4 274c2.3-33.7 24.7-54.8 58.5-54.8 35.4 0 53.2 20.8 56.2 54.8H390.4z"/></svg><svg viewBox="0 0 448 512" id="behance-square" xmlns="http://www.w3.org/2000/svg"><path d="M186.5 293c0 19.3-14 25.4-31.2 25.4h-45.1v-52.9h46c18.6.1 30.3 7.8 30.3 27.5zm-7.7-82.3c0-17.7-13.7-21.9-28.9-21.9h-39.6v44.8H153c15.1 0 25.8-6.6 25.8-22.9zm132.3 23.2c-18.3 0-30.5 11.4-31.7 29.7h62.2c-1.7-18.5-11.3-29.7-30.5-29.7zM448 80v352c0 26.5-21.5 48-48 48H48c-26.5 0-48-21.5-48-48V80c0-26.5 21.5-48 48-48h352c26.5 0 48 21.5 48 48zM271.7 185h77.8v-18.9h-77.8V185zm-43 110.3c0-24.1-11.4-44.9-35-51.6 17.2-8.2 26.2-17.7 26.2-37 0-38.2-28.5-47.5-61.4-47.5H68v192h93.1c34.9-.2 67.6-16.9 67.6-55.9zM380 280.5c0-41.1-24.1-75.4-67.6-75.4-42.4 0-71.1 31.8-71.1 73.6 0 43.3 27.3 73 71.1 73 33.2 0 54.7-14.9 65.1-46.8h-33.7c-3.7 11.9-18.6 18.1-30.2 18.1-22.4 0-34.1-13.1-34.1-35.3h100.2c.1-2.3.3-4.8.3-7.2z"/></svg><svg viewBox="0 0 448 512" id="book" xmlns="http://www.w3.org/2000/svg"><path d="M128 152v-32c0-4.4 3.6-8 8-8h208c4.4 0 8 3.6 8 8v32c0 4.4-3.6 8-8 8H136c-4.4 0-8-3.6-8-8zm8 88h208c4.4 0 8-3.6 8-8v-32c0-4.4-3.6-8-8-8H136c-4.4 0-8 3.6-8 8v32c0 4.4 3.6 8 8 8zm299.1 159.7c-4.2 13-4.2 51.6 0 64.6 7.3 1.4 12.9 7.9 12.9 15.7v16c0 8.8-7.2 16-16 16H80c-44.2 0-80-35.8-80-80V80C0 35.8 35.8 0 80 0h352c8.8 0 16 7.2 16 16v368c0 7.8-5.5 14.2-12.9 15.7zm-41.1.3H80c-17.6 0-32 14.4-32 32 0 17.7 14.3 32 32 32h314c-2.7-17.3-2.7-46.7 0-64zm6-352H80c-17.7 0-32 14.3-32 32v278.7c9.8-4.3 20.6-6.7 32-6.7h320V48z"/></svg><svg viewBox="0 0 512 512" id="book-reader" xmlns="http://www.w3.org/2000/svg"><path d="M459.91 192.02c-.7 0-1.39.02-2.06.05-49.8 2.84-140.51 13-201.84 47.57-61.33-34.57-152.05-44.73-201.84-47.57-.67-.04-1.36-.05-2.06-.05C31.71 192.01 0 206.36 0 242.22v178.05c0 26.69 21.25 48.7 48.34 50.12 34.41 1.81 120.56 9.08 177 37.47 5.47 2.77 11.34 4.14 17.19 4.14h26.94c5.84 0 11.72-1.37 17.19-4.14 56.44-28.39 142.59-35.65 177-37.47 27.09-1.42 48.34-23.44 48.34-50.12V242.22c0-35.86-31.71-50.2-52.09-50.2zM232 458.43c-60.63-25.8-138.17-33.71-181.14-35.97-1.71-.09-2.86-1.21-2.86-2.19l-.46-178.45c.76-.76 3.29-1.74 3.88-1.84 35.86 2.04 125.09 10.18 180.58 41.26v177.19zm232-38.16c0 .98-1.15 2.1-2.87 2.19-42.94 2.26-120.43 10.16-181.13 35.98v-177.2c55.32-30.98 144.17-39.16 179.93-41.22 1.4.13 3.78 1.09 4.07 2.2v178.05zM256 191.99c53.02 0 96-42.98 96-95.99S309.02 0 256 0s-96 42.98-96 95.99 42.98 96 96 96zM256 48c26.47 0 48 21.53 48 48s-21.53 48-48 48-48-21.53-48-48 21.53-48 48-48z"/></svg><svg viewBox="0 0 544 512" id="brain" xmlns="http://www.w3.org/2000/svg"><path d="M511.9 228.2c1.9-7.5 2.9-15.2 2.9-23 0-33-16.7-63-43.7-80.6-.4-39.7-29.4-72.8-67.5-79.8C389.9 17.8 361.8 0 330.3 0c-22.8 0-43.4 9.2-58.3 24.1A82.316 82.316 0 00213.7 0c-31.4 0-59.6 17.8-73.3 44.9-38.1 7-67.1 40.1-67.5 79.8-27.1 17.6-43.7 47.6-43.7 80.6 0 7.7 1 15.4 2.9 23C11.9 246.3 0 272.2 0 299.5c0 33 16.7 63 43.7 80.6.5 47.5 38.5 86.2 85.8 88.3 15.9 26.7 44.9 43.6 76.8 43.6 26 0 49.2-11.2 65.6-28.8 16.4 17.6 39.6 28.8 65.6 28.8 31.9 0 60.9-16.9 76.8-43.6 47.4-2 85.4-40.8 85.9-88.3 27-17.6 43.7-47.7 43.7-80.6.1-27.3-11.8-53.2-32-71.3zm-264 194.6c0 22.8-18.6 41.2-41.5 41.2-32.9 0-39.5-29.5-45.6-47.6l-20.3 3.4c-24 4-48.5-15.3-48.5-40.5 0-2.8 4.7-27.4 4.7-27.4l-18.2-7.5c-36.9-15.2-41.3-66.1-5.5-86.6l19.5-11.2-9.9-20.1C65 190.7 94 166 107.7 160.4l18.9-7.7c-5-21.9-5.5-22.8-5.5-27.2 0-18.8 15.3-34 31.9-34.1l22.9 1.2 4.8-18.9c3.9-15.1 17.4-25.6 32.9-25.6 18.9 0 34.2 15.2 34.2 34l.1 340.7zm217.7-78.5l-18.3 7.5s4.6 24.6 4.6 27.4c0 25.2-24.5 44.4-48.5 40.5l-20.3-3.4c-6.1 18.2-12.7 47.6-45.6 47.6-22.9 0-41.5-18.5-41.5-41.2V82c0-18.8 15.3-34 34.2-34 15.5 0 29.1 10.5 32.9 25.6l4.8 18.9 22.9-1.2c16.5.1 31.9 15.4 31.9 34.1 0 4.4-.4 5.3-5.5 27.2l18.9 7.7c13.7 5.6 42.7 30.2 25.1 65.9l-9.9 20.1 19.5 11.2c36.1 20.7 31.7 71.6-5.2 86.8z"/></svg><svg viewBox="0 0 576 512" id="cat" xmlns="http://www.w3.org/2000/svg"><path d="M416 128c-8.84 0-16 7.16-16 16s7.16 16 16 16 16-7.16 16-16-7.16-16-16-16zM547.53 4.15A47.971 47.971 0 00528.01 0c-11.64 0-23.13 4.23-32.12 12.32L456.25 48h-16.49l-39.64-35.68a48.032 48.032 0 00-51.65-8.17C331.16 11.87 320 29.04 320 48v112c0 4.24.85 8.24 1.25 12.38l-47 7.12c-67.48 10.23-124.62 46.4-162.25 97.52V184c0-48.53-39.47-88-88-88-13.25 0-24 10.75-24 24 0 13.47 11.12 24.37 24.68 23.99C47.02 143.37 64 164.57 64 186.92V399.3c0 73.41 39.4 112.7 88 112.7h184c8.84 0 16-7.16 16-16 0-17.67-14.33-32-32-32h-16.14c-.11-7.37-.78-14.63-1.85-21.81L384 393.95V480c0 17.67 14.33 32 32 32h64c17.67 0 32-14.33 32-32V270.2c38.07-22.2 64-63.03 64-110.19V48c0-18.95-11.16-36.13-28.47-43.85zM464 464h-32v-98.02c0-11.45-6.16-22.09-16.09-27.77-9.91-5.69-22.22-5.62-32.12.19l-96.35 56.68c-12.08-24.98-30.23-46.88-53.45-63.11-7.52-5.26-18.07-2.21-22.53 5.81l-7.44 13.39c-3.97 7.15-2.55 16.49 4.07 21.29 29.22 21.17 46.87 55.04 47.63 91.54H152c-22.06 0-40-17.94-40-40 0-99.28 71.25-182.16 169.44-197.03l53.57-8.12C356.4 259.74 398.75 288 448 288c5.48 0 10.7-.95 16-1.62V464zm64-304c0 44.18-35.82 80-80 80s-80-35.82-80-80V48l53.33 48h53.33L528 48v112zm-64-16c0 8.84 7.16 16 16 16s16-7.16 16-16-7.16-16-16-16-16 7.16-16 16z"/></svg><svg viewBox="0 0 320 512" id="chevron-right" xmlns="http://www.w3.org/2000/svg"><path d="M57 47l184 192c5 5 7 11 7 17s-2 12-7 17L57 465c-9 9-24 10-34 0-9-9-10-24 0-34l168-175L23 81c-10-10-9-25 0-34 10-9 25-9 34 0z"/></svg><svg viewBox="0 0 512 512" id="circle-bookmark" xmlns="http://www.w3.org/2000/svg"><path d="M256 16C123 16 16 123 16 256s107 240 240 240 240-107 240-240S389 16 256 16zm0 432c-106 0-192-86-192-192S150 64 256 64s192 86 192 192-86 192-192 192zm53-304H203c-15 0-27 12-27 27v165c0 13 16 21 26 12l54-44 54 44c10 9 26 1 26-12V171c0-15-12-27-27-27z"/></svg><svg viewBox="0 0 512 512" id="circle-chevron-right" xmlns="http://www.w3.org/2000/svg"><path d="M241 127c-9-9-25-9-34 0s-9 25 0 34l95 95-95 95c-9 9-9 25 0 34s25 9 34 0l112-112c5-5 7-11 7-17s-2-12-7-17L241 127zm15-111C123 16 16 123 16 256s107 240 240 240 240-107 240-240S389 16 256 16zm0 432c-106 0-192-86-192-192S150 64 256 64s192 86 192 192-86 192-192 192z"/></svg><svg viewBox="0 0 512 512" id="circle-dot" xmlns="http://www.w3.org/2000/svg"><path d="M256 16C123 16 16 123 16 256s107 240 240 240 240-107 240-240S389 16 256 16zm0 432c-106 0-192-86-192-192S150 64 256 64s192 86 192 192-86 192-192 192zm0-288c-53 0-96 43-96 96s43 96 96 96 96-43 96-96-43-96-96-96z"/></svg><svg viewBox="0 0 512 512" id="circle-envelope" xmlns="http://www.w3.org/2000/svg"><path d="M256 16C123 16 16 123 16 256s107 240 240 240 240-107 240-240S389 16 256 16zm0 432c-106 0-192-86-192-192S150 64 256 64s192 86 192 192-86 192-192 192zm0-160c-2 0-4 0-6-1l-122-49v82c0 18 14 32 32 32h192c18 0 32-14 32-32v-82l-122 49c-2 1-4 1-6 1zm96-128H160c-18 0-32 14-32 32v12l128 51 128-51v-12c0-18-14-32-32-32z"/></svg><svg viewBox="0 0 512 512" id="circle-heart" xmlns="http://www.w3.org/2000/svg"><path d="M256 16C123 16 16 123 16 256s107 240 240 240 240-107 240-240S389 16 256 16zm0 432c-106 0-192-86-192-192S150 64 256 64s192 86 192 192-86 192-192 192zm106-277c-30-25-75-25-106 0-31-25-76-25-106 0-18 15-29 37-30 61-1 23 8 46 24 63l85 86c7 7 17 11 27 11s20-4 27-11l85-86c16-17 25-40 24-63-1-24-12-46-30-61zm-28 90l-78 79-78-79c-7-7-10-17-10-27 1-10 5-20 13-26 6-5 14-8 21-8 10 0 21 4 28 12l26 25 26-25c13-14 35-16 49-4 8 6 13 16 13 26s-3 20-10 27z"/></svg><svg viewBox="0 0 512 512" id="circle-phone" xmlns="http://www.w3.org/2000/svg"><path d="M256 16C123 16 16 123 16 256s107 240 240 240 240-107 240-240S389 16 256 16zm0 432c-106 0-192-86-192-192S150 64 256 64s192 86 192 192-86 192-192 192zm119-144l-55-24c-6-2-14-1-18 5l-22 27c-35-17-63-45-80-80l27-22c6-4 7-12 5-18l-24-55c-3-6-10-10-18-9l-50 12c-7 2-12 8-12 15 0 126 103 229 229 229 7 0 13-5 15-12l12-50c1-8-2-15-9-18z"/></svg><svg viewBox="0 0 512 512" id="college" xmlns="http://www.w3.org/2000/svg"><path d="M488 464H24c-13 0-24 11-24 24s11 24 24 24h464c13 0 24-11 24-24s-11-24-24-24zm9-366L265 2c-6-3-12-3-18 0L15 98c-9 4-15 12-15 22v64c0 13 11 24 24 24h40v144h48V208h64v144h48V208h64v144h48V208h64v144h48V208h40c13 0 24-11 24-24v-64c0-10-6-18-15-22zm-33 62H48v-24l208-86 208 86v24zm-8 272c13 0 24-11 24-24s-11-24-24-24H56c-13 0-24 11-24 24s11 24 24 24h400z"/></svg><svg viewBox="0 0 448 512" id="dribbble-square" xmlns="http://www.w3.org/2000/svg"><path d="M90.2 228.2c8.9-42.4 37.4-77.7 75.7-95.7 3.6 4.9 28 38.8 50.7 79-64 17-120.3 16.8-126.4 16.7zM314.6 154c-33.6-29.8-79.3-41.1-122.6-30.6 3.8 5.1 28.6 38.9 51 80 48.6-18.3 69.1-45.9 71.6-49.4zM140.1 364c40.5 31.6 93.3 36.7 137.3 18-2-12-10-53.8-29.2-103.6-55.1 18.8-93.8 56.4-108.1 85.6zm98.8-108.2c-3.4-7.8-7.2-15.5-11.1-23.2C159.6 253 93.4 252.2 87.4 252c0 1.4-.1 2.8-.1 4.2 0 35.1 13.3 67.1 35.1 91.4 22.2-37.9 67.1-77.9 116.5-91.8zm34.9 16.3c17.9 49.1 25.1 89.1 26.5 97.4 30.7-20.7 52.5-53.6 58.6-91.6-4.6-1.5-42.3-12.7-85.1-5.8zm-20.3-48.4c4.8 9.8 8.3 17.8 12 26.8 45.5-5.7 90.7 3.4 95.2 4.4-.3-32.3-11.8-61.9-30.9-85.1-2.9 3.9-25.8 33.2-76.3 53.9zM448 80v352c0 26.5-21.5 48-48 48H48c-26.5 0-48-21.5-48-48V80c0-26.5 21.5-48 48-48h352c26.5 0 48 21.5 48 48zm-64 176c0-88.2-71.8-160-160-160S64 167.8 64 256s71.8 160 160 160 160-71.8 160-160z"/></svg><svg viewBox="0 0 512 512" id="facebook" xmlns="http://www.w3.org/2000/svg"><path d="M504 256C504 119 393 8 256 8S8 119 8 256c0 123.78 90.69 226.38 209.25 245V327.69h-63V256h63v-54.64c0-62.15 37-96.48 93.67-96.48 27.14 0 55.52 4.84 55.52 4.84v61h-31.28c-30.8 0-40.41 19.12-40.41 38.73V256h68.78l-11 71.69h-57.78V501C413.31 482.38 504 379.78 504 256z"/></svg><svg viewBox="0 0 448 512" id="facebook-square" xmlns="http://www.w3.org/2000/svg"><path d="M400 32H48A48 48 0 000 80v352a48 48 0 0048 48h137.25V327.69h-63V256h63v-54.64c0-62.15 37-96.48 93.67-96.48 27.14 0 55.52 4.84 55.52 4.84v61h-31.27c-30.81 0-40.42 19.12-40.42 38.73V256h68.78l-11 71.69h-57.78V480H400a48 48 0 0048-48V80a48 48 0 00-48-48z"/></svg><svg viewBox="0 0 512 512" id="fan" xmlns="http://www.w3.org/2000/svg"><path d="M256 224c-18 0-32 14-32 32s14 32 32 32 32-14 32-32-14-32-32-32zm256 41c-11-85-83-149-169-149-14 0-28 1-42 4l8-78c1-11-3-23-12-31S277-1 265 0c-85 11-149 83-149 169 0 14 1 28 4 42l-77-8c-12-1-24 3-32 12-8 8-12 20-11 32 11 85 83 149 169 149 14 0 28-1 42-4l-8 78c-1 11 3 23 12 31 7 7 17 11 27 11h5c85-11 149-83 149-169 0-14-1-28-4-42l77 8c12 1 24-3 32-12 8-8 12-20 11-32zm-162-16c-12-2-21 10-17 21l5 12c6 18 10 39 10 61 0 58-41 107-96 119l11-112c2-12-10-21-21-17l-12 5c-18 7-39 10-61 10-58 0-107-41-119-96l112 11c12 2 21-10 17-21l-5-12c-6-19-10-39-10-62 0-57 41-106 96-118l-11 112c-2 12 10 21 21 17l12-5c18-7 39-10 61-10 58 0 107 41 119 96l-112-11z"/></svg><svg viewBox="0 0 512 512" id="flag-en" xmlns="http://www.w3.org/2000/svg"><path d="M400 512H112C50.144 512 0 461.856 0 400V112C0 50.144 50.144 0 112 0h288c61.856 0 112 50.144 112 112v288c0 61.856-50.144 112-112 112z" fill="#41479b"/><g fill="#f5f5f5"><path d="M512 399.989v-24.587l-79.419-52.033H512v-26.948H296.421V512h26.947V348.46L494.3 460.45a111.414 111.414 0 0013.75-30.896M7.531 440.443a111.728 111.728 0 0010.168 20.007l170.932-111.99V512h26.947V296.421H0v26.948h79.419L0 375.402V400c0 4.306.252 8.553.725 12.733M0 115.807v20.791l79.419 52.034H0v26.947h215.579V0h-26.947v163.54L17.699 51.55A111.378 111.378 0 003.114 85.7M504.321 71.169a111.622 111.622 0 00-10.021-19.62L323.368 163.54V0h-26.947v215.579H512v-26.947h-79.419L512 136.598V112c0-4.46-.269-8.858-.776-13.182"/></g><g fill="#ff4b55"><path d="M296.421 0h-80.842v215.579H0v80.842h215.579V512h80.842V296.421H512v-80.842H296.421z"/><path d="M138.395 323.369L.725 412.733a111.28 111.28 0 006.807 27.71l180.359-117.075h-49.496v.001zM344.465 323.369l163.586 106.186A112.142 112.142 0 00512 400v-.011l-118.039-76.621-49.496.001zM161.684 188.632L3.114 85.7A112.234 112.234 0 000 112v3.807l112.188 72.825h49.496zM372.863 188.632l138.36-89.814a111.284 111.284 0 00-6.902-27.648L323.368 188.632h49.495z"/></g></svg><svg viewBox="0 0 512 512" id="flag-ru" xmlns="http://www.w3.org/2000/svg"><path d="M407.818.276H104.182C45.974 4.291 0 52.773 0 112v58.759h512V112C512 52.773 466.025 4.291 407.818.276z" fill="#f5f5f5"/><path d="M0 400c0 59.228 45.975 107.71 104.183 111.724h303.634C466.025 507.71 512 459.228 512 400v-58.759H0V400z" fill="#ff4b55"/><path fill="#41479b" d="M0 170.76h512v170.48H0z"/></svg><svg viewBox="0 0 512 512" id="flag-uk" xmlns="http://www.w3.org/2000/svg"><path d="M0 400c0 61.856 50.144 112 112 112h288c61.856 0 112-50.144 112-112V256H0v144z" fill="#ffe15a"/><path d="M400 0H112C50.144 0 0 50.144 0 112v144h512V112C512 50.144 461.856 0 400 0z" fill="#4173cd"/></svg><svg viewBox="0 0 640 512" id="gamepad" xmlns="http://www.w3.org/2000/svg"><path d="M400 224a32 32 0 1032 32 32 32 0 00-32-32zm238.57 114.4l-27.5-181.25C603.32 106 565.45 65 515.68 53.79a889.52 889.52 0 00-391.36 0C74.55 65 36.68 106 28.93 157.15L1.44 338.4C-9.86 412.85 46.94 480 121.21 480h.25a121 121 0 00108.38-67.94L243.67 384h152.66l13.83 28.06A121 121 0 00518.55 480h.25c74.27 0 131.06-67.15 119.77-141.6zm-64.85 68.19A71.66 71.66 0 01518.55 432c-27.79 0-52.82-15.77-65.34-41.17l-13.83-28.05-13.2-26.78H213.82l-13.2 26.78-13.83 28.05c-12.52 25.4-37.55 41.17-65.58 41.17a71.55 71.55 0 01-54.93-25.41 76 76 0 01-17.39-61l27.49-181.24c4.83-31.8 27.79-56.82 58.5-63.74a841.73 841.73 0 01370.25 0c30.71 6.92 53.66 31.94 58.49 63.74l27.49 181.25a76 76 0 01-17.39 60.99zM496 160a32 32 0 1032 32 32 32 0 00-32-32zm-232 40h-48v-48a8 8 0 00-8-8h-32a8 8 0 00-8 8v48h-48a8 8 0 00-8 8v32a8 8 0 008 8h48v48a8 8 0 008 8h32a8 8 0 008-8v-48h48a8 8 0 008-8v-32a8 8 0 00-8-8z"/></svg><svg viewBox="0 0 496 512" id="github" xmlns="http://www.w3.org/2000/svg"><path d="M165.9 397.4c0 2-2.3 3.6-5.2 3.6-3.3.3-5.6-1.3-5.6-3.6 0-2 2.3-3.6 5.2-3.6 3-.3 5.6 1.3 5.6 3.6zm-31.1-4.5c-.7 2 1.3 4.3 4.3 4.9 2.6 1 5.6 0 6.2-2s-1.3-4.3-4.3-5.2c-2.6-.7-5.5.3-6.2 2.3zm44.2-1.7c-2.9.7-4.9 2.6-4.6 4.9.3 2 2.9 3.3 5.9 2.6 2.9-.7 4.9-2.6 4.6-4.6-.3-1.9-3-3.2-5.9-2.9zM244.8 8C106.1 8 0 113.3 0 252c0 110.9 69.8 205.8 169.5 239.2 12.8 2.3 17.3-5.6 17.3-12.1 0-6.2-.3-40.4-.3-61.4 0 0-70 15-84.7-29.8 0 0-11.4-29.1-27.8-36.6 0 0-22.9-15.7 1.6-15.4 0 0 24.9 2 38.6 25.8 21.9 38.6 58.6 27.5 72.9 20.9 2.3-16 8.8-27.1 16-33.7-55.9-6.2-112.3-14.3-112.3-110.5 0-27.5 7.6-41.3 23.6-58.9-2.6-6.5-11.1-33.3 2.6-67.9 20.9-6.5 69 27 69 27 20-5.6 41.5-8.5 62.8-8.5s42.8 2.9 62.8 8.5c0 0 48.1-33.6 69-27 13.7 34.7 5.2 61.4 2.6 67.9 16 17.7 25.8 31.5 25.8 58.9 0 96.5-58.9 104.2-114.8 110.5 9.2 7.9 17 22.9 17 46.4 0 33.7-.3 75.4-.3 83.6 0 6.5 4.6 14.4 17.3 12.1C428.2 457.8 496 362.9 496 252 496 113.3 383.5 8 244.8 8zM97.2 352.9c-1.3 1-1 3.3.7 5.2 1.6 1.6 3.9 2.3 5.2 1 1.3-1 1-3.3-.7-5.2-1.6-1.6-3.9-2.3-5.2-1zm-10.8-8.1c-.7 1.3.3 2.9 2.3 3.9 1.6 1 3.6.7 4.3-.7.7-1.3-.3-2.9-2.3-3.9-2-.6-3.6-.3-4.3.7zm32.4 35.6c-1.6 1.3-1 4.3 1.3 6.2 2.3 2.3 5.2 2.6 6.5 1 1.3-1.3.7-4.3-1.3-6.2-2.2-2.3-5.2-2.6-6.5-1zm-11.4-14.7c-1.6 1-1.6 3.6 0 5.9 1.6 2.3 4.3 3.3 5.6 2.3 1.6-1.3 1.6-3.9 0-6.2-1.4-2.3-4-3.3-5.6-2z"/></svg><svg viewBox="0 0 448 512" id="github-square" xmlns="http://www.w3.org/2000/svg"><path d="M400 32H48C21.5 32 0 53.5 0 80v352c0 26.5 21.5 48 48 48h352c26.5 0 48-21.5 48-48V80c0-26.5-21.5-48-48-48zM277.3 415.7c-8.4 1.5-11.5-3.7-11.5-8 0-5.4.2-33 .2-55.3 0-15.6-5.2-25.5-11.3-30.7 37-4.1 76-9.2 76-73.1 0-18.2-6.5-27.3-17.1-39 1.7-4.3 7.4-22-1.7-45-13.9-4.3-45.7 17.9-45.7 17.9-13.2-3.7-27.5-5.6-41.6-5.6-14.1 0-28.4 1.9-41.6 5.6 0 0-31.8-22.2-45.7-17.9-9.1 22.9-3.5 40.6-1.7 45-10.6 11.7-15.6 20.8-15.6 39 0 63.6 37.3 69 74.3 73.1-4.8 4.3-9.1 11.7-10.6 22.3-9.5 4.3-33.8 11.7-48.3-13.9-9.1-15.8-25.5-17.1-25.5-17.1-16.2-.2-1.1 10.2-1.1 10.2 10.8 5 18.4 24.2 18.4 24.2 9.7 29.7 56.1 19.7 56.1 19.7 0 13.9.2 36.5.2 40.6 0 4.3-3 9.5-11.5 8-66-22.1-112.2-84.9-112.2-158.3 0-91.8 70.2-161.5 162-161.5S388 165.6 388 257.4c.1 73.4-44.7 136.3-110.7 158.3zm-98.1-61.1c-1.9.4-3.7-.4-3.9-1.7-.2-1.5 1.1-2.8 3-3.2 1.9-.2 3.7.6 3.9 1.9.3 1.3-1 2.6-3 3zm-9.5-.9c0 1.3-1.5 2.4-3.5 2.4-2.2.2-3.7-.9-3.7-2.4 0-1.3 1.5-2.4 3.5-2.4 1.9-.2 3.7.9 3.7 2.4zm-13.7-1.1c-.4 1.3-2.4 1.9-4.1 1.3-1.9-.4-3.2-1.9-2.8-3.2.4-1.3 2.4-1.9 4.1-1.5 2 .6 3.3 2.1 2.8 3.4zm-12.3-5.4c-.9 1.1-2.8.9-4.3-.6-1.5-1.3-1.9-3.2-.9-4.1.9-1.1 2.8-.9 4.3.6 1.3 1.3 1.8 3.3.9 4.1zm-9.1-9.1c-.9.6-2.6 0-3.7-1.5s-1.1-3.2 0-3.9c1.1-.9 2.8-.2 3.7 1.3 1.1 1.5 1.1 3.3 0 4.1zm-6.5-9.7c-.9.9-2.4.4-3.5-.6-1.1-1.3-1.3-2.8-.4-3.5.9-.9 2.4-.4 3.5.6 1.1 1.3 1.3 2.8.4 3.5zm-6.7-7.4c-.4.9-1.7 1.1-2.8.4-1.3-.6-1.9-1.7-1.5-2.6.4-.6 1.5-.9 2.8-.4 1.3.7 1.9 1.8 1.5 2.6z"/></svg><svg viewBox="0 0 512 512" id="heart" xmlns="http://www.w3.org/2000/svg"><path d="M463 63c-24-21-54-31-84-31-38 0-76 15-103 44l-20 20-20-20c-27-29-65-44-103-44-30 0-60 10-84 31-62 54-65 150-9 207l193 200c6 7 15 10 23 10s17-3 23-10l193-200c56-57 53-153-9-207zm-25 174L256 425 74 237c-32-33-40-98 6-138 40-34 95-17 122 10 29 31 8 9 54 56 38-39 27-28 54-56 27-27 81-45 122-10 45 40 39 104 6 138z"/></svg><svg viewBox="0 0 512 512" id="heartbeat" xmlns="http://www.w3.org/2000/svg"><path d="M266.4 427.7c-5.8 5.7-15.1 5.7-20.9 0L136.7 320H68.5l143.3 141.8c24.5 24.2 63.9 24.3 88.4 0L443.5 320h-68.2L266.4 427.7zM354.7 32c-36.5 0-71 12.3-98.7 34.9C228.3 44.3 193.8 32 157.3 32 86.2 32 0 88.9 0 188c0 37.3 13.7 72.1 37.8 100h116.8l29.9-71.7 56.9 126.3c5.5 12.3 22.9 12.7 28.9.6l49.7-99.4 22.1 44.2h132c24.1-27.9 37.8-62.7 37.8-100 .1-99.1-86.1-156-157.2-156zm83.9 224h-76.7l-27.6-55.2c-5.9-11.8-22.7-11.8-28.6 0l-48.9 97.9-58.2-129.3c-5.7-12.8-24-12.5-29.4.4L133.3 256H73.4c-58.8-69.5-7-176 83.9-176 31 0 51 6.2 98.7 53.4C307.1 82.9 325.1 80 354.7 80c91.2 0 142.7 106.5 83.9 176z"/></svg><svg viewBox="0 0 448 512" id="instagram" xmlns="http://www.w3.org/2000/svg"><path d="M224.1 141c-63.6 0-114.9 51.3-114.9 114.9s51.3 114.9 114.9 114.9S339 319.5 339 255.9 287.7 141 224.1 141zm0 189.6c-41.1 0-74.7-33.5-74.7-74.7s33.5-74.7 74.7-74.7 74.7 33.5 74.7 74.7-33.6 74.7-74.7 74.7zm146.4-194.3c0 14.9-12 26.8-26.8 26.8-14.9 0-26.8-12-26.8-26.8s12-26.8 26.8-26.8 26.8 12 26.8 26.8zm76.1 27.2c-1.7-35.9-9.9-67.7-36.2-93.9-26.2-26.2-58-34.4-93.9-36.2-37-2.1-147.9-2.1-184.9 0-35.8 1.7-67.6 9.9-93.9 36.1s-34.4 58-36.2 93.9c-2.1 37-2.1 147.9 0 184.9 1.7 35.9 9.9 67.7 36.2 93.9s58 34.4 93.9 36.2c37 2.1 147.9 2.1 184.9 0 35.9-1.7 67.7-9.9 93.9-36.2 26.2-26.2 34.4-58 36.2-93.9 2.1-37 2.1-147.8 0-184.8zM398.8 388c-7.8 19.6-22.9 34.7-42.6 42.6-29.5 11.7-99.5 9-132.1 9s-102.7 2.6-132.1-9c-19.6-7.8-34.7-22.9-42.6-42.6-11.7-29.5-9-99.5-9-132.1s-2.6-102.7 9-132.1c7.8-19.6 22.9-34.7 42.6-42.6 29.5-11.7 99.5-9 132.1-9s102.7-2.6 132.1 9c19.6 7.8 34.7 22.9 42.6 42.6 11.7 29.5 9 99.5 9 132.1s2.7 102.7-9 132.1z"/></svg><svg viewBox="0 0 448 512" id="instagram-square" xmlns="http://www.w3.org/2000/svg"><path d="M224 202.66A53.34 53.34 0 10277.36 256 53.38 53.38 0 00224 202.66zm124.71-41a54 54 0 00-30.41-30.41c-21-8.29-71-6.43-94.3-6.43s-73.25-1.93-94.31 6.43a54 54 0 00-30.41 30.41c-8.28 21-6.43 71.05-6.43 94.33s-1.85 73.27 6.47 94.34a54 54 0 0030.41 30.41c21 8.29 71 6.43 94.31 6.43s73.24 1.93 94.3-6.43a54 54 0 0030.41-30.41c8.35-21 6.43-71.05 6.43-94.33s1.92-73.26-6.43-94.33zM224 338a82 82 0 1182-82 81.9 81.9 0 01-82 82zm85.38-148.3a19.14 19.14 0 1119.13-19.14 19.1 19.1 0 01-19.09 19.18zM400 32H48A48 48 0 000 80v352a48 48 0 0048 48h352a48 48 0 0048-48V80a48 48 0 00-48-48zm-17.12 290c-1.29 25.63-7.14 48.34-25.85 67s-41.4 24.63-67 25.85c-26.41 1.49-105.59 1.49-132 0-25.63-1.29-48.26-7.15-67-25.85s-24.63-41.42-25.85-67c-1.49-26.42-1.49-105.61 0-132 1.29-25.63 7.07-48.34 25.85-67s41.47-24.56 67-25.78c26.41-1.49 105.59-1.49 132 0 25.63 1.29 48.33 7.15 67 25.85s24.63 41.42 25.85 67.05c1.49 26.32 1.49 105.44 0 131.88z"/></svg><svg viewBox="0 0 448 512" id="linkedin-square" xmlns="http://www.w3.org/2000/svg"><path d="M416 32H31.9C14.3 32 0 46.5 0 64.3v383.4C0 465.5 14.3 480 31.9 480H416c17.6 0 32-14.5 32-32.3V64.3c0-17.8-14.4-32.3-32-32.3zM135.4 416H69V202.2h66.5V416zm-33.2-243c-21.3 0-38.5-17.3-38.5-38.5S80.9 96 102.2 96c21.2 0 38.5 17.3 38.5 38.5 0 21.3-17.2 38.5-38.5 38.5zm282.1 243h-66.4V312c0-24.8-.5-56.7-34.5-56.7-34.6 0-39.9 27-39.9 54.9V416h-66.4V202.2h63.7v29.2h.9c8.9-16.8 30.6-34.5 62.9-34.5 67.2 0 79.7 44.3 79.7 101.9V416z"/></svg><svg viewBox="0 0 512 512" id="logo" xmlns="http://www.w3.org/2000/svg"><path d="M89.825 0h332.35C471.751 0 512 40.249 512 89.825v332.35C512 471.751 471.751 512 422.175 512H89.825C40.249 512 0 471.751 0 422.175V89.825C0 40.249 40.249 0 89.825 0z" fill="currentColor"/><path d="M199.253 326.536q0 8.75 6.895 18.031 12.728 16.971 40.571 16.971 16.971 0 29.964-7.955l15.911 40.041q-20.684 10.872-45.875 10.872-39.776 0-70.536-29.169-20.683-21.214-20.683-48.791v-2.122q0-49.587 50.648-70.27l107.925-44.284q0-25.191-16.706-42.295-16.706-17.103-42.163-17.103-22.274 0-39.245 16.706-16.441 16.175-16.971 40.836v3.712l-42.427 18.828v-23.336q0-37.124 31.82-71.066 27.048-28.638 68.415-28.638 41.366 0 70.535 29.169 29.169 29.169 29.169 70.535v178.726l-42.427 18.562V256.265l-87.242 35.533q-27.578 12.994-27.578 34.738z" fill="#fff"/></svg><svg viewBox="0 0 512 512" id="messenger" xmlns="http://www.w3.org/2000/svg"><path d="M256.55 8C116.52 8 8 110.34 8 248.57c0 72.3 29.71 134.78 78.07 177.94 8.35 7.51 6.63 11.86 8.05 58.23A19.92 19.92 0 00122 502.31c52.91-23.3 53.59-25.14 62.56-22.7C337.85 521.8 504 423.7 504 248.57 504 110.34 396.59 8 256.55 8zm149.24 185.13l-73 115.57a37.37 37.37 0 01-53.91 9.93l-58.08-43.47a15 15 0 00-18 0l-78.37 59.44c-10.46 7.93-24.16-4.6-17.11-15.67l73-115.57a37.36 37.36 0 0153.91-9.93l58.06 43.46a15 15 0 0018 0l78.41-59.38c10.44-7.98 24.14 4.54 17.09 15.62z"/></svg><svg viewBox="0 0 448 512" id="pexels-square" xmlns="http://www.w3.org/2000/svg"><path d="M400 32H48C21.5 32 0 53.5 0 80v352c0 26.5 21.5 48 48 48h352c26.5 0 48-21.5 48-48V80c0-26.5-21.5-48-48-48zM162.857 348.142h71.188v-69.143h21.506c31.795 0 57.57-25.775 57.57-57.571 0-31.795-25.775-57.57-57.57-57.57h-92.694v184.284zm108.045 36.856H126V127.002h129.551c49.172-.01 90.12 37.718 94.13 86.726 4.011 49.007-30.26 92.89-78.779 100.874v70.396z"/></svg><svg viewBox="0 0 448 512" id="pinterest-square" xmlns="http://www.w3.org/2000/svg"><path d="M448 80v352c0 26.5-21.5 48-48 48H154.4c9.8-16.4 22.4-40 27.4-59.3 3-11.5 15.3-58.4 15.3-58.4 8 15.3 31.4 28.2 56.3 28.2 74.1 0 127.4-68.1 127.4-152.7 0-81.1-66.2-141.8-151.4-141.8-106 0-162.2 71.1-162.2 148.6 0 36 19.2 80.8 49.8 95.1 4.7 2.2 7.1 1.2 8.2-3.3.8-3.4 5-20.1 6.8-27.8.6-2.5.3-4.6-1.7-7-10.1-12.3-18.3-34.9-18.3-56 0-54.2 41-106.6 110.9-106.6 60.3 0 102.6 41.1 102.6 99.9 0 66.4-33.5 112.4-77.2 112.4-24.1 0-42.1-19.9-36.4-44.4 6.9-29.2 20.3-60.7 20.3-81.8 0-53-75.5-45.7-75.5 25 0 21.7 7.3 36.5 7.3 36.5-31.4 132.8-36.1 134.5-29.6 192.6l2.2.8H48c-26.5 0-48-21.5-48-48V80c0-26.5 21.5-48 48-48h352c26.5 0 48 21.5 48 48z"/></svg><svg viewBox="0 0 576 512" id="plane" xmlns="http://www.w3.org/2000/svg"><path d="M239.57 48l100.57 176H456c26.03 0 62.87 19.73 71.1 32-8.23 12.27-45.07 32-71.1 32H340.14L239.57 464h-37.14l50.29-176H136l-36 48H58.68L82 256l-23.32-80H100l36 48h116.72L202.43 48h37.14m18.57-48h-98.13c-10.63 0-18.3 10.17-15.38 20.39L189.08 176H160l-31.2-41.6c-3.02-4.03-7.77-6.4-12.8-6.4H16.01C5.6 128-2.04 137.78.49 147.88L32 256 .49 364.12C-2.04 374.22 5.6 384 16.01 384H116c5.04 0 9.78-2.37 12.8-6.4L160 336h29.08l-44.46 155.6C141.7 501.82 149.37 512 160 512h98.13c5.74 0 11.04-3.08 13.89-8.06L368 336h88c44.18 0 120-35.82 120-80 0-44.19-75.82-80-120-80h-88L272.03 8.06A15.998 15.998 0 00258.14 0z"/></svg><svg viewBox="0 0 512 512" id="print" xmlns="http://www.w3.org/2000/svg"><path d="M112 48h254l34 34v78h48V82c0-13-5-25-14-34l-34-34c-9-9-21-14-34-14H112C86 0 64 21 64 48v112h48V48zm328 144H72c-40 0-72 32-72 72v112c0 13 11 24 24 24h56v80c0 18 14 32 32 32h288c18 0 32-14 32-32v-80h56c13 0 24-11 24-24V264c0-40-32-72-72-72zm-56 272H128v-96h256v96zm80-112h-32c0-18-14-32-32-32H112c-18 0-32 14-32 32H48v-88c0-13 11-24 24-24h368c13 0 24 11 24 24v88z"/></svg><svg viewBox="0 0 512 512" id="route" xmlns="http://www.w3.org/2000/svg"><path d="M424 336h-96c-22.1 0-40-17.9-40-40s17.9-40 40-40h88s96-107 96-160-43-96-96-96-96 43-96 96c0 29.8 30.3 76.7 56.9 112H328c-48.5 0-88 39.5-88 88s39.5 88 88 88h96c22.1 0 40 17.9 40 40s-17.9 40-40 40H135.1c26.6-35.3 56.9-82.2 56.9-112 0-53-43-96-96-96S0 299 0 352s96 160 96 160h328c48.5 0 88-39.5 88-88s-39.5-88-88-88zM368 96c0-26.5 21.5-48 48-48s48 21.5 48 47.9c-.5 13.4-20.8 48.2-48 84.4-27.2-36.2-47.5-70.9-48-84.3zM96 436.3c-27.2-36.2-47.5-70.9-48-84.3 0-26.5 21.5-48 48-48s48 21.5 48 47.9c-.5 13.4-20.8 48.2-48 84.4zM96 336c-8.8 0-16 7.2-16 16s7.2 16 16 16 16-7.2 16-16-7.2-16-16-16zM432 96c0-8.8-7.2-16-16-16s-16 7.2-16 16 7.2 16 16 16 16-7.2 16-16z"/></svg><svg viewBox="0 0 640 512" id="school" xmlns="http://www.w3.org/2000/svg"><path d="M352 352h-64c-18 0-32 14-32 32v112c0 9 7 16 16 16h96c9 0 16-7 16-16V384c0-18-14-32-32-32zm224-160h-64v-53c0-11-5-21-14-27L338 5c-5-3-12-5-18-5s-13 2-18 5L142 112c-9 6-14 16-14 27v53H64c-35 0-64 29-64 64v232c0 13 11 24 24 24s24-11 24-24V256c0-9 7-16 16-16h64v248c0 13 11 24 24 24s24-11 24-24V147l144-96 144 96v341c0 13 11 24 24 24s24-11 24-24V240h64c9 0 16 7 16 16v232c0 13 11 24 24 24s24-11 24-24V256c0-35-29-64-64-64zm-256-80c-44 0-80 36-80 80s36 80 80 80 80-36 80-80-36-80-80-80zm32 96h-32c-9 0-16-7-16-16v-32c0-9 7-16 16-16s16 7 16 16v16h16c9 0 16 7 16 16s-7 16-16 16z"/></svg><svg viewBox="0 0 448 512" id="skype" xmlns="http://www.w3.org/2000/svg"><path d="M424.7 299.8c2.9-14 4.7-28.9 4.7-43.8 0-113.5-91.9-205.3-205.3-205.3-14.9 0-29.7 1.7-43.8 4.7C161.3 40.7 137.7 32 112 32 50.2 32 0 82.2 0 144c0 25.7 8.7 49.3 23.3 68.2-2.9 14-4.7 28.9-4.7 43.8 0 113.5 91.9 205.3 205.3 205.3 14.9 0 29.7-1.7 43.8-4.7 19 14.6 42.6 23.3 68.2 23.3 61.8 0 112-50.2 112-112 .1-25.6-8.6-49.2-23.2-68.1zm-194.6 91.5c-65.6 0-120.5-29.2-120.5-65 0-16 9-30.6 29.5-30.6 31.2 0 34.1 44.9 88.1 44.9 25.7 0 42.3-11.4 42.3-26.3 0-18.7-16-21.6-42-28-62.5-15.4-117.8-22-117.8-87.2 0-59.2 58.6-81.1 109.1-81.1 55.1 0 110.8 21.9 110.8 55.4 0 16.9-11.4 31.8-30.3 31.8-28.3 0-29.2-33.5-75-33.5-25.7 0-42 7-42 22.5 0 19.8 20.8 21.8 69.1 33 41.4 9.3 90.7 26.8 90.7 77.6 0 59.1-57.1 86.5-112 86.5z"/></svg><svg viewBox="0 0 496 512" id="telegram" xmlns="http://www.w3.org/2000/svg"><path d="M248 8C111 8 0 119 0 256s111 248 248 248 248-111 248-248S385 8 248 8zm121.8 169.9l-40.7 191.8c-3 13.6-11.1 16.9-22.4 10.5l-62-45.7-29.9 28.8c-3.3 3.3-6.1 6.1-12.5 6.1l4.4-63.1 114.9-103.8c5-4.4-1.1-6.9-7.7-2.5l-142 89.4-61.2-19.1c-13.3-4.2-13.6-13.3 2.8-19.7l239.1-92.2c11.1-4 20.8 2.7 17.2 19.5z"/></svg><svg viewBox="0 0 320 512" id="times" xmlns="http://www.w3.org/2000/svg"><path d="M207.6 256l107.72-107.72c6.23-6.23 6.23-16.34 0-22.58l-25.03-25.03c-6.23-6.23-16.34-6.23-22.58 0L160 208.4 52.28 100.68c-6.23-6.23-16.34-6.23-22.58 0L4.68 125.7c-6.23 6.23-6.23 16.34 0 22.58L112.4 256 4.68 363.72c-6.23 6.23-6.23 16.34 0 22.58l25.03 25.03c6.23 6.23 16.34 6.23 22.58 0L160 303.6l107.72 107.72c6.23 6.23 16.34 6.23 22.58 0l25.03-25.03c6.23-6.23 6.23-16.34 0-22.58L207.6 256z"/></svg><svg viewBox="0 0 512 512" id="twitter" xmlns="http://www.w3.org/2000/svg"><path d="M459.37 151.716c.325 4.548.325 9.097.325 13.645 0 138.72-105.583 298.558-298.558 298.558-59.452 0-114.68-17.219-161.137-47.106 8.447.974 16.568 1.299 25.34 1.299 49.055 0 94.213-16.568 130.274-44.832-46.132-.975-84.792-31.188-98.112-72.772 6.498.974 12.995 1.624 19.818 1.624 9.421 0 18.843-1.3 27.614-3.573-48.081-9.747-84.143-51.98-84.143-102.985v-1.299c13.969 7.797 30.214 12.67 47.431 13.319-28.264-18.843-46.781-51.005-46.781-87.391 0-19.492 5.197-37.36 14.294-52.954 51.655 63.675 129.3 105.258 216.365 109.807-1.624-7.797-2.599-15.918-2.599-24.04 0-57.828 46.782-104.934 104.934-104.934 30.213 0 57.502 12.67 76.67 33.137 23.715-4.548 46.456-13.32 66.599-25.34-7.798 24.366-24.366 44.833-46.132 57.827 21.117-2.273 41.584-8.122 60.426-16.243-14.292 20.791-32.161 39.308-52.628 54.253z"/></svg><svg viewBox="0 0 448 512" id="twitter-square" xmlns="http://www.w3.org/2000/svg"><path d="M400 32H48C21.5 32 0 53.5 0 80v352c0 26.5 21.5 48 48 48h352c26.5 0 48-21.5 48-48V80c0-26.5-21.5-48-48-48zm-48.9 158.8c.2 2.8.2 5.7.2 8.5 0 86.7-66 186.6-186.6 186.6-37.2 0-71.7-10.8-100.7-29.4 5.3.6 10.4.8 15.8.8 30.7 0 58.9-10.4 81.4-28-28.8-.6-53-19.5-61.3-45.5 10.1 1.5 19.2 1.5 29.6-1.2-30-6.1-52.5-32.5-52.5-64.4v-.8c8.7 4.9 18.9 7.9 29.6 8.3a65.447 65.447 0 01-29.2-54.6c0-12.2 3.2-23.4 8.9-33.1 32.3 39.8 80.8 65.8 135.2 68.6-9.3-44.5 24-80.6 64-80.6 18.9 0 35.9 7.9 47.9 20.7 14.8-2.8 29-8.3 41.6-15.8-4.9 15.2-15.2 28-28.8 36.1 13.2-1.4 26-5.1 37.8-10.2-8.9 13.1-20.1 24.7-32.9 34z"/></svg><svg viewBox="0 0 512 512" id="viber" xmlns="http://www.w3.org/2000/svg"><path d="M444 49.9C431.3 38.2 379.9.9 265.3.4c0 0-135.1-8.1-200.9 52.3C27.8 89.3 14.9 143 13.5 209.5c-1.4 66.5-3.1 191.1 117 224.9h.1l-.1 51.6s-.8 20.9 13 25.1c16.6 5.2 26.4-10.7 42.3-27.8 8.7-9.4 20.7-23.2 29.8-33.7 82.2 6.9 145.3-8.9 152.5-11.2 16.6-5.4 110.5-17.4 125.7-142 15.8-128.6-7.6-209.8-49.8-246.5zM457.9 287c-12.9 104-89 110.6-103 115.1-6 1.9-61.5 15.7-131.2 11.2 0 0-52 62.7-68.2 79-5.3 5.3-11.1 4.8-11-5.7 0-6.9.4-85.7.4-85.7-.1 0-.1 0 0 0-101.8-28.2-95.8-134.3-94.7-189.8 1.1-55.5 11.6-101 42.6-131.6 55.7-50.5 170.4-43 170.4-43 96.9.4 143.3 29.6 154.1 39.4 35.7 30.6 53.9 103.8 40.6 211.1zm-139-80.8c.4 8.6-12.5 9.2-12.9.6-1.1-22-11.4-32.7-32.6-33.9-8.6-.5-7.8-13.4.7-12.9 27.9 1.5 43.4 17.5 44.8 46.2zm20.3 11.3c1-42.4-25.5-75.6-75.8-79.3-8.5-.6-7.6-13.5.9-12.9 58 4.2 88.9 44.1 87.8 92.5-.1 8.6-13.1 8.2-12.9-.3zm47 13.4c.1 8.6-12.9 8.7-12.9.1-.6-81.5-54.9-125.9-120.8-126.4-8.5-.1-8.5-12.9 0-12.9 73.7.5 133 51.4 133.7 139.2zM374.9 329v.2c-10.8 19-31 40-51.8 33.3l-.2-.3c-21.1-5.9-70.8-31.5-102.2-56.5-16.2-12.8-31-27.9-42.4-42.4-10.3-12.9-20.7-28.2-30.8-46.6-21.3-38.5-26-55.7-26-55.7-6.7-20.8 14.2-41 33.3-51.8h.2c9.2-4.8 18-3.2 23.9 3.9 0 0 12.4 14.8 17.7 22.1 5 6.8 11.7 17.7 15.2 23.8 6.1 10.9 2.3 22-3.7 26.6l-12 9.6c-6.1 4.9-5.3 14-5.3 14s17.8 67.3 84.3 84.3c0 0 9.1.8 14-5.3l9.6-12c4.6-6 15.7-9.8 26.6-3.7 14.7 8.3 33.4 21.2 45.8 32.9 7 5.7 8.6 14.4 3.8 23.6z"/></svg></svg>