<svg xmlns="http://www.w3.org/2000/svg" viewBox="0 0 512 512" width="512pt" height="512pt">
<path d=" M 89.825 0 L 422.175 0 C 471.751 0 512 40.249 512 89.825 L 512 422.175 C 512 471.751 471.751 512 422.175 512 L 89.825 512 C 40.249 512 0 471.751 0 422.175 L 0 89.825 C 0 40.249 40.249 0 89.825 0 Z "
      fill="currentColor"/>
<path d=" M 199.253 326.536 L 199.253 326.536 L 199.253 326.536 Q 199.253 335.286 206.148 344.567 L 206.148 344.567 L 206.148 344.567 Q 218.876 361.538 246.719 361.538 L 246.719 361.538 L 246.719 361.538 Q 263.69 361.538 276.683 353.583 L 276.683 353.583 L 292.594 393.624 L 292.594 393.624 Q 271.91 404.496 246.719 404.496 L 246.719 404.496 L 246.719 404.496 Q 206.943 404.496 176.183 375.327 L 176.183 375.327 L 176.183 375.327 Q 155.5 354.113 155.5 326.536 L 155.5 326.536 L 155.5 326.536 Q 155.5 325.475 155.5 324.414 L 155.5 324.414 L 155.5 324.414 Q 155.5 274.827 206.148 254.144 L 206.148 254.144 L 314.073 209.86 L 314.073 209.86 Q 314.073 184.669 297.367 167.565 L 297.367 167.565 L 297.367 167.565 Q 280.661 150.462 255.204 150.462 L 255.204 150.462 L 255.204 150.462 Q 232.93 150.462 215.959 167.168 L 215.959 167.168 L 215.959 167.168 Q 199.518 183.343 198.988 208.004 L 198.988 208.004 L 198.988 211.716 L 156.561 230.544 L 156.561 207.208 L 156.561 207.208 Q 156.561 170.084 188.381 136.142 L 188.381 136.142 L 188.381 136.142 Q 215.429 107.504 256.796 107.504 L 256.796 107.504 L 256.796 107.504 Q 298.162 107.504 327.331 136.673 L 327.331 136.673 L 327.331 136.673 Q 356.5 165.842 356.5 207.208 L 356.5 207.208 L 356.5 385.934 L 314.073 404.496 L 314.073 256.265 L 226.831 291.798 L 226.831 291.798 Q 199.253 304.792 199.253 326.536 Z "
      fill="#ffffff"/>
</svg>
