<svg xmlns="http://www.w3.org/2000/svg" viewBox="0 0 448 512"><path d=" M 400 32 L 48 32 C 21.5 32 0 53.5 0 80 L 0 432 C 0 458.5 21.5 480 48 480 L 400 480 C 426.5 480 448 458.5 448 432 L 448 80 C 448 53.5 426.5 32 400 32 Z  M 162.857 348.142 L 234.045 348.142 L 234.045 278.999 L 255.551 278.999 C 287.346 278.999 313.121 253.224 313.121 221.428 C 313.121 189.633 287.346 163.858 255.551 163.858 L 162.857 163.858 L 162.857 348.142 Z  M 270.902 384.998 L 126 384.998 L 126 127.002 L 255.551 127.002 C 304.723 126.992 345.671 164.72 349.681 213.728 C 353.692 262.735 319.421 306.618 270.902 314.602 L 270.902 384.998 Z "/></svg>